<svg width="375" height="812" viewBox="0 0 375 812" fill="none" xmlns="http://www.w3.org/2000/svg">
<g clip-path="url(#clip0_3_1)">
<rect width="375" height="812" fill="#F5F5FA"/>
<rect width="375" height="810" fill="#57419D"/>
<path d="M196.032 98.363L224.1 73.4582C224.1 73.4582 235.993 86.3823 221.298 99.8201C208.348 111.693 196.032 98.363 196.032 98.363Z" fill="#FF8893"/>
<path d="M55.2129 331.208L77.5759 311.365C77.5759 311.365 87.0518 321.663 75.3434 332.369C65.0257 341.829 55.2129 331.208 55.2129 331.208Z" fill="#FF8893"/>
<path d="M51.5668 71.0082L28.8124 100.859L13 68L51.5668 71.0082Z" fill="#FF8893"/>
<path d="M385.567 293.008L362.812 322.859L347 290L385.567 293.008Z" fill="white"/>
<path d="M369.556 58L375.418 68.1046L375.418 100.578L354.978 112.379L335 77.9005L369.556 58Z" fill="#FFD76F"/>
<path d="M140.151 138L128.812 162.143L113 144.016L140.151 138Z" fill="#FFC734"/>
<path d="M-9.00004 278.381L17.381 296L35 269.619L8.61896 252L-9.00004 278.381Z" fill="#FFC734"/>
<path d="M165 13.5844L186.584 28L201 6.41563L179.415 -7.99996L165 13.5844Z" fill="#FFC734"/>
<path d="M165.56 72.7052C165.637 72.7052 165.714 72.7052 165.714 72.7052L179.521 77.1018C179.829 77.1789 179.984 77.4875 179.906 77.796C179.829 78.1046 179.521 78.2588 179.212 78.1817L165.405 73.7851C165.097 73.7079 164.943 73.3994 165.02 73.0908C165.097 72.8594 165.328 72.7052 165.56 72.7052Z" fill="white"/>
<path d="M174.584 68C174.661 68 174.661 68 174.738 68C175.047 68.0771 175.201 68.3857 175.124 68.6942L170.881 82.5011C170.804 82.8096 170.496 82.9639 170.187 82.8868C169.879 82.8096 169.724 82.5011 169.801 82.1926L174.044 68.3857C174.121 68.1543 174.352 68 174.584 68Z" fill="white"/>
<path d="M33.5595 171.705C33.6367 171.705 33.7139 171.705 33.7139 171.705L47.5207 176.102C47.8292 176.179 47.9835 176.487 47.9064 176.796C47.8292 177.105 47.5208 177.259 47.2122 177.182L33.4053 172.785C33.0968 172.708 32.9425 172.399 33.0196 172.091C33.0968 171.859 33.3281 171.705 33.5595 171.705Z" fill="white"/>
<path d="M42.5838 167C42.6609 167 42.6609 167 42.738 167C43.0466 167.077 43.2008 167.386 43.1237 167.694L38.8814 181.501C38.8042 181.81 38.4957 181.964 38.1871 181.887C37.8786 181.81 37.7243 181.501 37.8015 181.193L42.0438 167.386C42.121 167.154 42.3524 167 42.5838 167Z" fill="white"/>
<path d="M125.56 295.705C125.637 295.705 125.714 295.705 125.714 295.705L139.521 300.102C139.829 300.179 139.984 300.487 139.906 300.796C139.829 301.105 139.521 301.259 139.212 301.182L125.405 296.785C125.097 296.708 124.943 296.399 125.02 296.091C125.097 295.859 125.328 295.705 125.56 295.705Z" fill="white"/>
<path d="M134.584 291C134.661 291 134.661 291 134.738 291C135.047 291.077 135.201 291.386 135.124 291.694L130.881 305.501C130.804 305.81 130.496 305.964 130.187 305.887C129.879 305.81 129.724 305.501 129.801 305.193L134.044 291.386C134.121 291.154 134.352 291 134.584 291Z" fill="white"/>
<path d="M349.56 161.705C349.637 161.705 349.714 161.705 349.714 161.705L363.521 166.102C363.829 166.179 363.984 166.487 363.906 166.796C363.829 167.105 363.521 167.259 363.212 167.182L349.405 162.785C349.097 162.708 348.943 162.399 349.02 162.091C349.097 161.859 349.328 161.705 349.56 161.705Z" fill="white"/>
<path d="M358.584 157C358.661 157 358.661 157 358.738 157C359.047 157.077 359.201 157.386 359.124 157.694L354.881 171.501C354.804 171.81 354.496 171.964 354.187 171.887C353.879 171.81 353.724 171.501 353.801 171.193L358.044 157.386C358.121 157.154 358.352 157 358.584 157Z" fill="white"/>
<path d="M337 221.283L352.504 202C352.504 202 362.068 208.171 353.969 218.429C346.873 227.531 337 221.283 337 221.283Z" fill="#FF8893"/>
<path d="M56.8709 52.8703C56.948 52.8703 57.0251 52.8703 57.0251 52.8703C57.3336 52.9475 57.4879 53.3332 57.4108 53.5646L56.0995 57.4212C56.0224 57.7298 55.6367 57.884 55.4053 57.8069C55.0968 57.7298 54.9425 57.3441 55.0196 57.1127L56.3309 53.256C56.408 53.0246 56.6395 52.8703 56.8709 52.8703Z" fill="#FBA6AE"/>
<path d="M110.479 44C110.711 44 110.865 44.0771 111.019 44.3085L115.261 52.0219C115.416 52.3304 115.339 52.639 115.03 52.7932C114.722 52.9475 114.413 52.8703 114.259 52.5618L110.016 44.8484C109.862 44.5399 109.939 44.2314 110.248 44.0771C110.325 44 110.402 44 110.479 44Z" fill="#FFD76F"/>
<path d="M107.856 97.0678C108.011 97.0678 108.088 97.0678 108.165 97.145L115.107 102.236C115.338 102.39 115.415 102.776 115.261 103.007C115.107 103.238 114.721 103.316 114.49 103.161L107.548 98.0705C107.316 97.9163 107.239 97.5306 107.394 97.2992C107.471 97.1449 107.702 97.0678 107.856 97.0678Z" fill="#FBA6AE"/>
<path d="M76.6951 104.781C76.8493 104.781 77.0036 104.858 77.0807 104.935C77.3121 105.167 77.3121 105.552 77.0807 105.784L73.4555 109.255C73.2241 109.486 72.8383 109.486 72.6069 109.255C72.3755 109.023 72.3755 108.638 72.6069 108.406L76.2323 104.935C76.4637 104.858 76.5408 104.781 76.6951 104.781Z" fill="#FFD76F"/>
<path d="M138.17 55.4156C138.247 55.4156 138.324 55.4156 138.401 55.4928C138.71 55.5699 138.864 55.9556 138.71 56.2641L133.542 69.6853C133.388 69.9939 133.079 70.1481 132.771 69.9939C132.462 69.9167 132.308 69.5311 132.462 69.2225L137.63 55.8013C137.707 55.5699 137.939 55.4156 138.17 55.4156Z" fill="#FBA6AE"/>
<path d="M78.8543 148.516C78.9315 148.516 79.0085 148.516 79.0857 148.516L85.1021 150.753C85.4107 150.83 85.5649 151.216 85.4107 151.524C85.3335 151.833 84.9479 151.987 84.6393 151.833L78.6229 149.596C78.3143 149.519 78.1601 149.133 78.3143 148.824C78.3915 148.67 78.6229 148.516 78.8543 148.516Z" fill="#FFD76F"/>
<path d="M42.8709 196.87C42.948 196.87 43.0251 196.87 43.0251 196.87C43.3336 196.947 43.4879 197.333 43.4108 197.565L42.0995 201.421C42.0224 201.73 41.6367 201.884 41.4053 201.807C41.0968 201.73 40.9425 201.344 41.0196 201.113L42.3309 197.256C42.408 197.025 42.6395 196.87 42.8709 196.87Z" fill="#FBA6AE"/>
<path d="M96.4793 188C96.7107 188 96.8649 188.077 97.0192 188.309L101.261 196.022C101.416 196.33 101.339 196.639 101.03 196.793C100.722 196.948 100.413 196.87 100.259 196.562L96.0164 188.848C95.8621 188.54 95.9393 188.231 96.2478 188.077C96.3249 188 96.4021 188 96.4793 188Z" fill="#FFD76F"/>
<path d="M93.8564 241.068C94.0107 241.068 94.0878 241.068 94.165 241.145L101.107 246.236C101.338 246.39 101.415 246.776 101.261 247.007C101.107 247.238 100.721 247.316 100.49 247.161L93.5479 242.071C93.3165 241.916 93.2394 241.531 93.3936 241.299C93.4708 241.145 93.7022 241.068 93.8564 241.068Z" fill="#FBA6AE"/>
<path d="M62.6951 248.781C62.8493 248.781 63.0036 248.858 63.0807 248.935C63.3121 249.167 63.3121 249.552 63.0807 249.784L59.4555 253.255C59.2241 253.486 58.8383 253.486 58.6069 253.255C58.3755 253.023 58.3755 252.638 58.6069 252.406L62.2323 248.935C62.4637 248.858 62.5408 248.781 62.6951 248.781Z" fill="#FFD76F"/>
<path d="M124.17 199.416C124.247 199.416 124.324 199.416 124.401 199.493C124.71 199.57 124.864 199.956 124.71 200.264L119.542 213.685C119.388 213.994 119.079 214.148 118.771 213.994C118.462 213.917 118.308 213.531 118.462 213.223L123.63 199.801C123.707 199.57 123.939 199.416 124.17 199.416Z" fill="#FBA6AE"/>
<path d="M64.8543 292.516C64.9315 292.516 65.0085 292.516 65.0857 292.516L71.1021 294.753C71.4107 294.83 71.5649 295.216 71.4107 295.524C71.3335 295.833 70.9479 295.987 70.6393 295.833L64.6229 293.596C64.3143 293.519 64.1601 293.133 64.3143 292.824C64.3915 292.67 64.6229 292.516 64.8543 292.516Z" fill="#FFD76F"/>
<path d="M233.871 39.8703C233.948 39.8703 234.025 39.8703 234.025 39.8703C234.334 39.9475 234.488 40.3332 234.411 40.5646L233.1 44.4212C233.022 44.7298 232.637 44.884 232.405 44.8069C232.097 44.7298 231.943 44.3441 232.02 44.1127L233.331 40.256C233.408 40.0246 233.639 39.8703 233.871 39.8703Z" fill="#FBA6AE"/>
<path d="M287.479 31C287.711 31 287.865 31.0771 288.019 31.3085L292.261 39.0219C292.416 39.3304 292.339 39.639 292.03 39.7932C291.722 39.9475 291.413 39.8703 291.259 39.5618L287.016 31.8484C286.862 31.5399 286.939 31.2314 287.248 31.0771C287.325 31 287.402 31 287.479 31Z" fill="#FFD76F"/>
<path d="M284.856 84.0678C285.011 84.0678 285.088 84.0678 285.165 84.145L292.107 89.2357C292.338 89.39 292.415 89.7757 292.261 90.0071C292.107 90.2385 291.721 90.3156 291.49 90.1614L284.548 85.0705C284.316 84.9163 284.239 84.5306 284.394 84.2992C284.471 84.1449 284.702 84.0678 284.856 84.0678Z" fill="#FBA6AE"/>
<path d="M253.695 91.7811C253.849 91.7811 254.004 91.8583 254.081 91.9354C254.312 92.1668 254.312 92.5525 254.081 92.7839L250.455 96.2549C250.224 96.4863 249.838 96.4863 249.607 96.2549C249.376 96.0235 249.376 95.6378 249.607 95.4064L253.232 91.9354C253.464 91.8583 253.541 91.7811 253.695 91.7811Z" fill="#FFD76F"/>
<path d="M315.17 42.4156C315.247 42.4156 315.324 42.4156 315.401 42.4928C315.71 42.5699 315.864 42.9556 315.71 43.2641L310.542 56.6853C310.388 56.9938 310.079 57.1481 309.771 56.9939C309.462 56.9167 309.308 56.5311 309.462 56.2225L314.63 42.8013C314.707 42.5699 314.939 42.4156 315.17 42.4156Z" fill="#FBA6AE"/>
<path d="M255.854 135.516C255.931 135.516 256.009 135.516 256.086 135.516L262.102 137.753C262.411 137.83 262.565 138.216 262.411 138.524C262.334 138.833 261.948 138.987 261.639 138.833L255.623 136.596C255.314 136.519 255.16 136.133 255.314 135.824C255.391 135.67 255.623 135.516 255.854 135.516Z" fill="#FFD76F"/>
</g>
<defs>
<clipPath id="clip0_3_1">
<rect width="375" height="812" fill="white"/>
</clipPath>
</defs>
</svg>
